PathFileType	4	(X/Y/Z)	C:\Users\Basilio\Documents\Thesis Gigler\squatting_fais\c3dfiles\075\SJ_pre4\markers_experimental.trc
DataRate	CameraRate	NumFrames	NumMarkers	Units	OrigDataRate	OrigDataStartFrame	OrigNumFrames
200.000000	200.000000	4	61	mm	200.000000	203	1624
Frame#	Time	FHD			LBHD			RBHD			C7			T10			CLAV			LSHO			LUUPA			LMUPA			LDUPA			LLEP			LMEP			LRAD			LUL			LRFIN			RSHO			RUPA1			RMUPA			RDUPA			RLEP			RMEP			RRAD			RUL			RUFIN			LASI			RASI			USACR			LSACR			RSACR			LTHI1			LTHI2			LTHI3			LTHI4			LLFC			LMFC			LTIB1			LTIB2			LTIB3			LTIB4			LLMAL			LMMAL			LHEE			LMT1			LMT2			LMT5			RTHI			RTHI2			RTHI3			RTHI4			RLFC			RMFC			RTIB1			RTIB2			RTIB3			RTIB4			RLMAL			RMMAL			RHEE			RMT1			RMT2			RMT5			
		X1	Y1	Z1	X2	Y2	Z2	X3	Y3	Z3	X4	Y4	Z4	X5	Y5	Z5	X6	Y6	Z6	X7	Y7	Z7	X8	Y8	Z8	X9	Y9	Z9	X10	Y10	Z10	X11	Y11	Z11	X12	Y12	Z12	X13	Y13	Z13	X14	Y14	Z14	X15	Y15	Z15	X16	Y16	Z16	X17	Y17	Z17	X18	Y18	Z18	X19	Y19	Z19	X20	Y20	Z20	X21	Y21	Z21	X22	Y22	Z22	X23	Y23	Z23	X24	Y24	Z24	X25	Y25	Z25	X26	Y26	Z26	X27	Y27	Z27	X28	Y28	Z28	X29	Y29	Z29	X30	Y30	Z30	X31	Y31	Z31	X32	Y32	Z32	X33	Y33	Z33	X34	Y34	Z34	X35	Y35	Z35	X36	Y36	Z36	X37	Y37	Z37	X38	Y38	Z38	X39	Y39	Z39	X40	Y40	Z40	X41	Y41	Z41	X42	Y42	Z42	X43	Y43	Z43	X44	Y44	Z44	X45	Y45	Z45	X46	Y46	Z46	X47	Y47	Z47	X48	Y48	Z48	X49	Y49	Z49	X50	Y50	Z50	X51	Y51	Z51	X52	Y52	Z52	X53	Y53	Z53	X54	Y54	Z54	X55	Y55	Z55	X56	Y56	Z56	X57	Y57	Z57	X58	Y58	Z58	X59	Y59	Z59	X60	Y60	Z60	X61	Y61	Z61	

204	1.015	-207.9971008300782	1698.04248046875	-934.3645019531252	-352.3802185058594	1568.7470703125	-985.3792724609377	-302.5618286132813	1611.870483398438	-835.051208496094	-383.3006286621094	1456.863403320313	-925.7720336914065	-402.4900817871095	1133.40234375	-922.4168701171877	-237.7474060058594	1396.7041015625	-923.960388183594	-282.7714538574219	1427.07568359375	-1084.2763671875	-327.6032104492188	1274.478271484375	-1244.77685546875	-291.4408569335938	1239.377685546875	-1236.10009765625	-323.4391174316407	1215.176391601563	-1282.5517578125	-316.2328491210938	1131.279296875	-1308.620971679688	-394.2318725585939	1119.40625	-1259.526977539063	-283.1629333496094	951.3318481445315	-1138.248779296875	-243.1589508056641	914.4438476562502	-1191.108276367188	-238.2467041015626	938.7059326171877	-1096.726196289063	-279.7396545410157	1435.044311523438	-762.7120361328126	-333.8735961914063	1285.819213867188	-604.2537231445314	-304.1255187988282	1245.786865234375	-608.4879150390626	-342.3089599609376	1226.815307617188	-565.4421386718751	-342.0924072265626	1158.204711914063	-539.9199829101564	-415.2529296875001	1131.502685546875	-573.0297241210939	-252.5474700927735	936.9644165039065	-649.1931152343751	-296.4541931152344	959.479187011719	-708.2720336914064	-236.9498291015626	955.788269042969	-744.6526489257814	-232.0603179931641	945.385437011719	-1043.769287109375	-232.0519104003907	960.2595825195315	-795.080261230469	-391.2218322753907	1035.154296875	-924.2648925781252	-397.5040283203126	1002.597961425781	-950.8002929687502	-397.578338623047	1005.653747558594	-893.4609985351565	-303.0358581542969	719.9273681640626	-1123.15771484375	-278.0289001464844	639.9947509765626	-1124.495483398438	-230.6962280273438	641.8894653320314	-1108.561889648438	-308.0359497070313	588.2705078125001	-1115.796752929688	-317.9868164062501	480.7096557617189	-1107.06982421875	-271.5877990722657	462.7909240722657	-993.485290527344	-271.5241088867188	353.9216308593751	-1089.592407226563	-336.1070861816407	321.4902343750001	-1137.516845703125	-293.9750366210938	311.4750976562501	-1120.548950195313	-300.2835998535157	229.5948333740235	-1098.110961914063	-385.6721496582032	94.62912750244142	-1119.565551757813	-347.3190612792969	99.06281280517581	-1041.603515625	-433.2118225097657	48.93880844116212	-1074.661376953125	-219.7102661132813	52.13653564453126	-1084.132568359375	-226.6735839843751	57.55030822753908	-1132.319458007813	-271.6986083984376	42.65076446533204	-1180.493286132813	-310.4629211425782	775.462097167969	-713.2842407226564	-274.2115173339844	721.5911254882814	-710.8045654296876	-242.6597595214844	725.8415527343751	-720.8972167968751	-304.1470336914063	640.8898315429689	-713.3605346679689	-318.3621826171876	486.361785888672	-735.4149169921876	-271.3481445312501	465.8853759765626	-851.9659423828127	-273.7901611328126	332.1957702636719	-778.3951416015627	-334.2394409179688	263.7374267578126	-717.8598022460939	-295.0050354003907	253.7888336181641	-744.3887939453126	-304.2849121093751	206.217025756836	-777.0212402343752	-383.8321533203126	92.27293395996095	-736.8663940429689	-344.5340576171876	107.5506973266602	-815.7459716796877	-427.2412719726564	49.28211975097658	-793.465759277344	-219.2051086425782	58.06663894653322	-764.5037841796876	-227.2334747314454	57.76438903808595	-723.5737915039064	-268.1876831054688	35.85396957397462	-675.2550048828126	
205	1.02	-208.1944732666016	1698.126953125	-934.166931152344	-352.5375671386719	1568.708862304688	-985.2906494140627	-302.6437988281251	1611.869018554688	-834.7943115234377	-383.2906494140626	1456.829833984375	-925.747497558594	-402.454803466797	1133.3642578125	-922.3739013671877	-237.9799957275391	1396.583862304688	-924.0232543945315	-282.8424377441407	1426.994750976563	-1084.353393554688	-327.7460937500001	1274.328979492188	-1244.7626953125	-291.5541992187501	1239.25048828125	-1236.066528320313	-323.5034179687501	1215.08349609375	-1282.537475585938	-316.1973876953126	1131.131469726563	-1308.542236328125	-394.2873840332032	1119.263916015625	-1259.475463867188	-283.1155700683594	951.2065429687502	-1138.099365234375	-243.2286682128907	914.3162841796877	-1190.9638671875	-238.2096862792969	938.6916503906252	-1096.585327148438	-279.7719421386719	1434.860229492188	-762.6774291992189	-333.9532470703126	1285.682739257813	-604.2219848632814	-304.2293090820313	1245.616577148438	-608.4863281250001	-342.4062500000001	1226.690795898438	-565.3831176757814	-342.1894531250001	1158.068481445313	-539.8375854492189	-415.3853759765626	1131.264892578125	-573.0002441406251	-252.4368286132813	936.8476562500002	-649.0934448242189	-296.3188781738282	959.4079589843752	-708.1513061523439	-236.5847473144532	955.829040527344	-744.3475341796876	-231.8212432861329	945.446472167969	-1043.703491210938	-231.8931274414063	960.335876464844	-794.9327392578127	-391.0697631835939	1035.155151367188	-924.0615844726565	-397.4132690429689	1002.554138183594	-950.6150512695315	-397.4924621582032	1005.555236816406	-893.2799072265627	-302.1983032226563	719.7136840820314	-1122.807495117188	-277.8817443847657	639.9768676757814	-1124.37646484375	-230.7258300781251	641.8814086914064	-1108.474609375	-307.9234313964844	588.2537231445314	-1115.691528320313	-317.7619018554688	480.6583251953126	-1106.91552734375	-271.5448303222657	462.731658935547	-993.4548339843752	-271.4186706542969	353.9179077148438	-1089.468017578125	-335.9910583496094	321.5064086914063	-1137.512817382813	-293.8648376464844	311.4988403320313	-1120.502685546875	-300.2663269042969	229.5642242431641	-1098.060424804688	-385.7625122070314	94.67144775390626	-1119.5810546875	-347.3038024902344	99.06539154052737	-1041.562377929688	-433.1986389160157	48.94997787475587	-1074.695434570313	-219.6898803710938	52.11639785766603	-1084.13232421875	-226.6765441894532	57.57972335815431	-1132.335327148438	-271.6340332031251	42.66809844970704	-1180.504638671875	-310.2787170410157	775.4942626953127	-713.1742553710939	-274.0454101562501	721.5018310546876	-710.6846313476564	-242.4993438720704	725.7733764648439	-720.8848876953126	-304.0175781250001	640.8870239257814	-713.3319702148439	-318.3727111816407	486.3813476562501	-735.3724975585939	-271.6341857910157	465.9744262695314	-852.0466308593752	-273.3682861328126	332.2612609863282	-777.962097167969	-334.2371826171876	263.7277832031251	-717.8519897460939	-294.9407043457032	253.7093658447266	-744.3176879882814	-304.3409118652344	206.2248229980469	-777.0664672851565	-383.8245544433594	92.25453948974611	-736.8510131835939	-344.4922790527344	107.5744018554688	-815.7092895507815	-427.286102294922	49.32106399536134	-793.4182128906252	-219.273666381836	58.01488113403322	-764.5617675781251	-227.2588958740235	57.70113372802736	-723.5629882812501	-268.1654663085938	35.85906982421876	-675.2428588867189	
206	1.025	-208.4603576660157	1698.2958984375	-933.9534301757815	-352.6095886230469	1568.835205078125	-985.184997558594	-302.6985778808594	1611.740478515625	-834.6973266601565	-383.2976684570313	1456.840942382813	-925.7191162109377	-402.4686889648439	1133.310424804688	-922.3546142578127	-237.9266510009766	1396.3359375	-923.8538208007815	-282.8347167968751	1426.906372070313	-1084.3232421875	-327.6750183105469	1274.183715820313	-1244.715087890625	-291.7617187500001	1239.137451171875	-1236.096557617188	-323.5301513671876	1214.966186523438	-1282.523071289063	-316.2195434570313	1130.973876953125	-1308.446899414063	-394.302703857422	1119.152709960938	-1259.375	-283.1916198730469	951.1268310546877	-1137.99658203125	-243.2100219726563	914.2197875976565	-1190.822143554688	-238.1333618164063	938.6423339843752	-1096.4951171875	-279.7892456054688	1434.631103515625	-762.6345825195314	-334.0322265625001	1285.5673828125	-604.1904296875001	-304.3343811035157	1245.458984375	-608.4275512695314	-342.4549255371094	1226.535034179688	-565.4038696289064	-342.2756042480469	1157.916625976563	-539.7872314453126	-415.4278869628907	1131.059204101563	-572.9640502929689	-252.3601074218751	936.7403564453127	-648.9789428710939	-296.1506347656251	959.3496704101565	-708.0771484375001	-236.4936981201172	955.796813964844	-744.1732788085939	-231.8462371826172	945.403991699219	-1043.579956054688	-231.7838897705079	960.3510742187502	-794.8670043945315	-390.9432067871095	1035.0888671875	-923.8685302734377	-397.3647766113282	1002.523132324219	-950.4321899414065	-397.4555969238282	1005.495483398438	-893.0764770507815	-302.8205871582032	719.9077758789064	-1122.878295898438	-277.8588256835938	639.9351196289064	-1124.256103515625	-230.5059814453126	641.8309326171876	-1108.342651367188	-307.8050842285157	588.2708129882814	-1115.62548828125	-317.7035217285157	480.6307067871095	-1106.87060546875	-271.4200744628907	462.6943359375001	-993.4124755859377	-271.3303527832032	353.9505004882813	-1089.462158203125	-335.9444580078126	321.5353393554688	-1137.467895507813	-293.8031616210938	311.4885253906251	-1120.480590820313	-300.1455383300782	229.5549621582032	-1098.029296875	-385.7465209960939	94.64709472656251	-1119.553100585938	-347.2926330566407	99.06346130371097	-1041.547729492188	-433.1911010742189	48.9806594848633	-1074.66162109375	-219.7788696289063	52.16963195800783	-1084.125	-226.7086639404297	57.58825683593751	-1132.318603515625	-271.6867065429688	42.64147186279298	-1180.500366210938	-310.0870056152344	775.500671386719	-713.1228637695314	-273.8608398437501	721.4531860351564	-710.6653442382814	-242.3567199707032	725.7540893554689	-720.8520507812501	-303.9228210449219	640.8950805664064	-713.2502441406251	-318.4024047851563	486.4273071289064	-735.3287353515626	-271.5558166503907	465.9019165039064	-852.0151977539065	-273.3554077148438	332.3167724609376	-777.9505004882815	-334.2743225097657	263.6965942382813	-717.8421630859376	-294.8562316894532	253.6853332519532	-744.3214721679689	-304.3664550781251	206.264389038086	-777.0443115234377	-383.8278503417969	92.26747894287111	-736.8488159179689	-344.5102844238282	107.5361785888672	-815.7067871093752	-427.3010559082032	49.28565979003908	-793.4061279296877	-219.2754974365235	58.02149581909181	-764.5538330078126	-227.2505493164063	57.73373794555665	-723.5163574218751	-268.1689147949219	35.83184814453126	-675.2509765625001	
207	1.03	-208.7162475585938	1698.437377929688	-933.7385253906252	-352.5878601074219	1568.68505859375	-984.9924926757815	-302.9754943847657	1610.451416015625	-834.0653076171877	-383.3034057617188	1456.781005859375	-925.6455688476565	-402.4383239746095	1133.30615234375	-922.3093872070315	-238.1057128906251	1396.273803710938	-923.846618652344	-282.8577880859376	1426.81884765625	-1084.329345703125	-327.7109375000001	1274.048583984375	-1244.660278320313	-291.7480468750001	1239.005859375	-1236.063232421875	-323.5284729003907	1214.853881835938	-1282.485717773438	-316.3270568847657	1130.856689453125	-1308.4404296875	-394.3878479003907	1119.03515625	-1259.298095703125	-283.1083984375001	951.050720214844	-1137.926391601563	-243.293197631836	914.1185302734377	-1190.75634765625	-238.1076049804688	938.6077880859377	-1096.387939453125	-279.9603271484376	1434.536865234375	-762.6388549804689	-334.0985107421876	1285.450439453125	-604.1281127929689	-304.4589233398438	1245.22412109375	-608.3892211914064	-342.6239318847657	1226.370239257813	-565.3776245117189	-342.4454345703126	1157.735107421875	-539.7609252929689	-415.4732666015626	1130.8017578125	-572.9224243164064	-252.264633178711	936.644470214844	-648.8448486328126	-295.8950500488282	959.5662841796877	-708.0357055664064	-236.3562622070313	955.7775878906252	-744.0155029296876	-231.7580261230469	945.4253540039065	-1043.536010742188	-231.5332641601563	960.394226074219	-794.719421386719	-390.8666381835939	1034.994995117188	-923.6943359375002	-397.2881774902345	1002.450256347656	-950.2629394531252	-397.3530273437501	1005.413330078125	-892.8966064453127	-302.7483215332032	719.9749145507814	-1122.798461914063	-277.8156433105469	639.8597412109376	-1124.117065429688	-230.6409301757813	641.9119873046876	-1108.322387695313	-307.7501525878907	588.2774658203126	-1115.525512695313	-317.5486145019532	480.5769348144532	-1106.77392578125	-271.2923583984376	462.6625366210939	-993.4007568359377	-271.2486572265626	353.9656982421876	-1089.465576171875	-335.7967224121094	321.5070495605469	-1137.417358398438	-293.6194458007813	311.4288635253907	-1120.372802734375	-300.0807495117188	229.5190582275391	-1098.006958007813	-385.6015014648439	94.68070220947267	-1119.53466796875	-347.2408142089844	99.08484649658206	-1041.493774414063	-433.1689758300782	48.99735260009767	-1074.679077148438	-219.7854309082032	52.07726669311525	-1084.1240234375	-226.6513671875001	57.56267166137697	-1132.313354492188	-271.7564392089844	42.65866088867188	-1180.46435546875	-309.9377441406251	775.5406494140627	-712.9879760742189	-273.6647949218751	721.5243530273439	-710.4962158203126	-242.1893615722657	725.7319946289064	-720.8020019531251	-303.8215026855469	640.8804931640626	-713.2413940429689	-318.4363708496094	486.416717529297	-735.2882080078126	-271.4331054687501	465.9043884277345	-851.9708251953127	-273.4223327636719	332.3103027343751	-778.0180664062502	-334.2798461914063	263.7466735839844	-717.8450317382814	-294.8793334960938	253.7352600097657	-744.3074340820314	-304.3607482910157	206.1519775390626	-777.0617675781252	-383.8104248046876	92.30337524414064	-736.8222656250001	-344.5582275390626	107.6887130737305	-815.7017211914065	-427.2767028808595	49.27656936645509	-793.4218750000002	-219.2918701171876	58.04348754882814	-764.5574951171876	-227.2613372802735	57.76976394653322	-723.5581054687501	-268.1761169433594	35.85538864135743	-675.2368164062501	
